<?xml version="1.0" encoding="UTF-8"?>
<svg id="Capa_2" data-name="Capa 2" xmlns="http://www.w3.org/2000/svg" viewBox="0 0 4290 630.1">
  <defs>
    <style>
      .cls-1 {
        fill: #fff;
      }

      .cls-2 {
        fill: #45f4d3;
      }
    </style>
  </defs>
  <g id="Capa_1-2" data-name="Capa 1">
    <g>
      <path class="cls-1" d="m298.72,191.74c-24.11-14.51-53.37-21.77-87.74-21.77-38.85,0-69.99,8.83-93.44,26.46-23.44,17.64-38.51,41.86-45.21,72.67h-6.02v-92.43H0v446.75h72.33v-207.63h2.68c6.7,30.36,21.88,54.7,45.55,73,23.66,18.31,54.02,27.47,91.09,27.47,34.82,0,64.18-7.25,88.07-21.77,23.88-14.49,41.97-34.82,54.25-60.95,12.28-26.11,18.42-56.15,18.42-90.07s-6.26-65.2-18.75-91.09c-12.5-25.9-30.81-46.11-54.92-60.62Zm-12.06,214.65c-8.94,15.65-21.76,26.9-38.51,33.82-16.75,6.94-37.17,10.38-61.28,10.38s-43.43-3.68-60.61-11.05c-17.2-7.37-30.47-18.74-39.86-34.15-9.37-15.41-14.06-34.27-14.06-56.59v-6.02c0-35.72,10.05-62.39,30.14-80.04,20.1-17.64,48.67-26.46,85.73-26.46,23.21,0,43.19,3.34,59.94,10.03,16.75,6.7,29.57,17.87,38.51,33.5,8.92,15.63,13.39,36.83,13.39,63.63s-4.47,47.33-13.39,62.95Z"/>
      <path class="cls-1" d="m670.44,186.04c-16.08-10.71-36.83-16.08-62.29-16.08-22.77,0-42.08,4.25-57.93,12.74-15.86,8.49-28.47,19.98-37.84,34.49-9.38,14.51-15.64,30.91-18.75,49.23h-4.69v-89.76h-66.31v332.89h72.33v-186.87c0-29.47,6.25-52,18.75-67.64,12.5-15.63,33.04-23.44,61.62-23.44,25,0,42.87,5.59,53.58,16.75,10.71,11.17,16.08,28.8,16.08,52.91v29.47h71.66v-43.53c0-20.98-3.68-40.41-11.05-58.26-7.37-17.87-19.09-32.15-35.16-42.88Z"/>
      <path class="cls-1" d="m1030.1,191.74c-27.69-14.51-60.28-21.77-97.79-21.77s-68.88,7.26-96.78,21.77c-27.91,14.51-49.56,34.72-64.97,60.62-15.41,25.89-23.11,56.25-23.11,91.09s7.7,63.96,23.11,90.07c15.41,26.13,37.06,46.46,64.97,60.95,27.9,14.53,60.17,21.77,96.78,21.77s70.1-7.25,97.79-21.77c27.68-14.49,49.23-34.82,64.63-60.95,15.41-26.11,23.11-56.15,23.11-90.07s-7.7-65.2-23.11-91.09c-15.41-25.9-36.95-46.11-64.63-60.62Zm-10.05,232.4c-17.86,18.54-47.11,27.8-87.74,27.8s-69.21-9.26-87.07-27.8c-17.86-18.52-26.79-45.42-26.79-80.69s8.93-62.39,26.79-81.38c17.86-18.99,46.89-28.47,87.07-28.47s69.88,9.48,87.74,28.47c17.86,18.99,26.79,46.11,26.79,81.38s-8.93,62.17-26.79,80.69Z"/>
      <path class="cls-1" d="m1457.4,259.73h-4.02c-5.81-29.02-20.88-51.24-45.21-66.65-24.35-15.41-53.92-23.12-88.75-23.12s-62.4,6.49-86.73,19.43c-24.35,12.96-43.1,31.03-56.26,54.25-13.18,23.22-19.76,50.23-19.76,81.04s6.36,57.83,19.09,81.04c12.72,23.24,30.81,41.31,54.24,54.25,23.44,12.96,51.68,19.43,84.73,19.43,37.94,0,68.08-8.04,90.42-24.11,22.32-16.08,36.39-36.83,42.2-62.29h4.69v81.71c0,24.56-3.35,43.75-10.04,57.61-6.7,13.84-17.53,23.55-32.49,29.12-14.97,5.58-35.16,8.38-60.61,8.38-23.67,0-42.76-2.13-57.27-6.37-14.51-4.25-25.11-11.27-31.81-21.1-6.7-9.81-10.05-22.77-10.05-38.83h-71.66c0,26.78,7.03,49.55,21.1,68.32,14.06,18.74,33.59,33.15,58.6,43.19,25,10.05,54.02,15.08,87.07,15.08,36.17,0,67.64-5.59,94.44-16.75,26.79-11.17,47.56-28.47,62.29-51.91,14.73-23.43,22.1-53.69,22.1-90.74V176.66h-66.3v83.07Zm-34.83,134.62c-19.66,15.18-47.78,22.77-84.39,22.77-22.77,0-42.31-3.01-58.61-9.04-16.3-6.04-28.69-15.75-37.17-29.14-8.49-13.39-12.72-31.48-12.72-54.25s4.35-41.41,13.06-54.58c8.71-13.17,21.43-22.67,38.18-28.47,16.75-5.8,36.5-8.71,59.27-8.71s43.76,3.13,60.29,9.38c16.52,6.25,29.24,15.73,38.18,28.47,8.92,12.72,13.39,28.45,13.39,47.21v9.38c0,29.47-9.83,51.79-29.47,66.97Z"/>
      <path class="cls-1" d="m1838.49,186.04c-16.08-10.71-36.83-16.08-62.29-16.08-22.77,0-42.08,4.25-57.93,12.74-15.86,8.49-28.47,19.98-37.84,34.49-9.38,14.51-15.64,30.91-18.75,49.23h-4.69v-89.76h-66.31v332.89h72.33v-186.87c0-29.47,6.25-52,18.75-67.64,12.5-15.63,33.04-23.44,61.62-23.44,25,0,42.87,5.59,53.58,16.75,10.71,11.17,16.08,28.8,16.08,52.91v29.47h71.66v-43.53c0-20.98-3.68-40.41-11.05-58.26-7.37-17.87-19.09-32.15-35.16-42.88Z"/>
      <path class="cls-1" d="m2178.39,187.73c-22.55-11.84-51.46-17.76-86.73-17.76s-65.54,5.82-90.75,17.42c-25.23,11.62-44.55,27.35-57.94,47.21-13.4,19.88-20.1,42.53-20.1,67.99v2.69h71.66v-2.69c0-24.54,7.59-42.2,22.77-52.91,15.18-10.72,38.18-16.08,68.99-16.08s54.8,5.47,67.98,16.4c13.17,10.95,19.76,30.26,19.76,57.94v19.47l-151.37,16.04c-21.89,2.67-40.85,7.37-56.93,14.06-16.08,6.7-28.47,15.97-37.17,27.8-8.71,11.82-13.06,26.46-13.06,43.86,0,27.25,10.16,48.56,30.47,63.96,20.31,15.41,47.66,23.12,82.05,23.12,37.94,0,69.54-7.92,94.77-23.79,25.22-15.84,42.3-37.83,51.23-65.96h4.69v83.05h66.3v-202.28c0-26.78-5.46-50.45-16.4-70.98-10.95-20.53-27.69-36.73-50.23-48.56Zm-64.63,266.57c-18.75,6.47-40.85,9.71-66.31,9.71-20.54,0-35.61-3.24-45.21-9.71-9.6-6.47-14.4-16.42-14.4-29.81s4.57-22.2,13.73-27.8c9.15-5.58,23.11-9.48,41.86-11.72l130.6-14.65c-.01,21.84-5.36,39.68-16.07,53.5-10.71,13.84-25.45,24.01-44.2,30.48Z"/>
      <path class="cls-1" d="m2840.46,188.06c-19.21-12.05-43.31-18.09-72.33-18.09s-50.68,5.27-68.99,15.75c-18.31,10.5-32.39,24.01-42.2,40.52-9.83,16.52-16.31,34.39-19.42,53.58h-4.37c-2.23-14.79-5.99-28.72-11.71-41.53-9.37-20.98-23.44-37.61-42.2-49.9-18.75-12.27-42.64-18.42-71.66-18.42s-50.46,5.15-68.32,15.41c-17.87,10.28-31.48,23.44-40.85,39.52-9.38,16.08-15.64,33.5-18.75,52.24h-4.02v-100.47h-66.31v332.89h72.33v-164.77c0-37.06,7.14-64.63,21.44-82.71,14.28-18.09,39.28-27.13,75.01-27.13,32.14,0,55.14,7.37,68.99,22.1,13.83,14.73,20.76,38.62,20.76,71.67v180.83h71.66v-164.77c0-37.06,7.25-64.63,21.77-82.71,14.5-18.09,39.4-27.13,74.68-27.13,32.59,0,55.81,7.37,69.66,22.1,13.83,14.73,20.76,38.62,20.76,71.67v180.83h71.66v-200.27c0-26.78-4.8-50.67-14.4-71.67-9.6-20.98-24-37.51-43.19-49.55Z"/>
      <path class="cls-1" d="m3211.17,187.73c-22.55-11.84-51.46-17.76-86.73-17.76s-65.54,5.82-90.75,17.42c-25.23,11.62-44.55,27.35-57.94,47.21-13.4,19.88-20.1,42.53-20.1,67.99v2.69h71.66v-2.69c0-24.54,7.59-42.2,22.77-52.91,15.18-10.72,38.18-16.08,68.99-16.08s54.8,5.47,67.98,16.4c13.17,10.95,19.76,30.26,19.76,57.94v19.47l-151.37,16.04c-21.89,2.67-40.85,7.37-56.93,14.06-16.08,6.7-28.47,15.97-37.17,27.8-8.71,11.82-13.06,26.46-13.06,43.86,0,27.25,10.16,48.56,30.47,63.96,20.31,15.41,47.66,23.12,82.05,23.12,37.94,0,69.54-7.92,94.77-23.79,25.22-15.84,42.3-37.83,51.23-65.96h4.69v83.05h66.3v-202.28c0-26.78-5.46-50.45-16.4-70.98-10.95-20.53-27.69-36.73-50.23-48.56Zm-64.63,266.57c-18.75,6.47-40.85,9.71-66.31,9.71-20.54,0-35.61-3.24-45.21-9.71-9.6-6.47-14.4-16.42-14.4-29.81s4.57-22.2,13.73-27.8c9.15-5.58,23.11-9.48,41.86-11.72l130.6-14.65c-.01,21.84-5.36,39.68-16.07,53.5-10.71,13.84-25.45,24.01-44.2,30.48Z"/>
      <path class="cls-1" d="m3626.75,354.16c-18.75-14.29-47.78-23.87-87.07-28.8l-77.02-10.72c-24.56-3.56-41.31-8.24-50.23-14.06-8.94-5.8-13.4-15.16-13.4-28.12,0-15.63,6.03-27.01,18.08-34.17,12.06-7.13,33.5-10.71,64.31-10.71,24.54,0,43.63,2.34,57.27,7.02,13.61,4.7,23.1,11.52,28.46,20.43,5.36,8.93,8.04,19.88,8.04,32.82v4.01h71.66v-2c0-26.35-6.59-48.45-19.76-66.32-13.18-17.85-31.93-31.24-56.26-40.17-24.34-8.93-53.48-13.41-87.4-13.41s-62.52,4.25-85.73,12.74c-23.23,8.49-40.64,20.21-52.25,35.16-11.61,14.96-17.41,32.26-17.41,51.9,0,28.14,8.92,49.23,26.79,63.29,17.85,14.08,42.63,23.12,74.34,27.13l91.09,12.07c24.11,3.13,40.74,7.59,49.9,13.39,9.15,5.8,13.74,15.63,13.74,29.47,0,14.73-5.93,25.58-17.75,32.48-11.83,6.94-34.05,10.4-66.64,10.4-34.83,0-59.5-4.13-74.01-12.39-14.51-8.26-21.76-23.34-21.76-45.22v-5.35h-72.33v2.01c0,38.4,14.62,67.87,43.87,88.4,29.24,20.53,70.67,30.81,124.25,30.81,31.25,0,58.49-3.92,81.71-11.72,23.21-7.81,41.3-19.19,54.25-34.17,12.94-14.94,19.42-32.7,19.42-53.24,0-27.68-9.38-48.66-28.13-62.96Z"/>
      <polygon class="cls-2" points="4032.98 60.81 3930.16 60.81 3858.49 60.81 3681.67 60.81 3681.67 125.77 3858.49 125.77 3858.49 509.55 3930.16 509.55 3930.16 125.77 4106.3 125.77 4032.98 60.81"/>
      <rect class="cls-2" x="4148.5" y="176.66" width="72.33" height="332.89"/>
      <polygon class="cls-1" points="4252.74 0 4185.67 67.07 4118.59 0 4081.33 37.26 4148.4 104.34 4148.4 104.34 4185.67 141.6 4222.93 104.34 4290 37.26 4252.74 0"/>
    </g>
  </g>
</svg>