<?xml version="1.0" encoding="UTF-8"?>
<svg id="Capa_2" data-name="Capa 2" xmlns="http://www.w3.org/2000/svg" xmlns:xlink="http://www.w3.org/1999/xlink" viewBox="0 0 27.52 35.41">
  <defs>
    <style>
      .cls-1 {
        fill: url(#Degradado_sin_nombre_2);
      }

      .cls-2 {
        fill: url(#Degradado_sin_nombre_27);
      }
    </style>
    <linearGradient id="Degradado_sin_nombre_27" data-name="Degradado sin nombre 27" x1="-18.42" y1="5.77" x2="23.4" y2="29.14" gradientUnits="userSpaceOnUse">
      <stop offset="0" stop-color="#5342fd"/>
      <stop offset=".49" stop-color="#7e6efe"/>
      <stop offset=".86" stop-color="#a8a5ff"/>
      <stop offset="1" stop-color="#afa9ff"/>
    </linearGradient>
    <linearGradient id="Degradado_sin_nombre_2" data-name="Degradado sin nombre 2" x1="14.32" y1="19.49" x2="-7.69" y2="37.73" gradientUnits="userSpaceOnUse">
      <stop offset="0" stop-color="#5342fd"/>
      <stop offset=".47" stop-color="#7e6efe"/>
      <stop offset=".99" stop-color="#a8a5ff"/>
    </linearGradient>
  </defs>
  <g id="Capa_1-2" data-name="Capa 1">
    <g>
      <path class="cls-2" d="m26.23,20.14l-21.63,14.76c-1.96,1.33-4.6-.06-4.6-2.44v-8.27c0-1.14.56-2.2,1.5-2.84l5.33-3.63-5.33-3.63c-.94-.64-1.5-1.7-1.5-2.84V2.95C0,.59,2.64-.82,4.6.51l21.63,14.76c1.72,1.17,1.72,3.69,0,4.87Z"/>
      <path class="cls-1" d="m14.41,22.88c1.87,1.28,1.87,4.04,0,5.32l-9.81,6.69c-1.96,1.33-4.6-.06-4.6-2.44v-8.28c0-1.14.56-2.2,1.5-2.84l5.33-3.63,7.58,5.17Z"/>
    </g>
  </g>
</svg>